# xmcd
#
# Track frame offsets:
# 150
# 16305
# 28221
# 48682
# 74272
# 93512
# 107898
# 123901
# 142369
# 160145
# 177027
# 191419
# 207439
# 223653
# 241257
# 257786
# 272921
# 288838
#
# Disc length: 4015 seconds
#
# Revision: 0
# Processed by: cddbd v1.5.2PL0 Copyright (c) Steve Scherf et al.
# Submitted via: Audion 3.0.2 (http://www.panic.com/audion/)
#
DISCID=160fad12
DTITLE=Various Artist - Kasbah - CD 4
DYEAR=1900
DGENRE=
TTITLE0=unknown
TTITLE1=unknown
TTITLE2=unknown
TTITLE3=unknown
TTITLE4=unknown
TTITLE5=unknown
TTITLE6=unknown
TTITLE7=unknown
TTITLE8=unknown
TTITLE9=unknown
TTITLE10=unknown
TTITLE11=unknown
TTITLE12=unknown
TTITLE13=unknown
TTITLE14=unknown
TTITLE15=unknown
TTITLE16=unknown
TTITLE17=unknown
EXTD=
EXTT0=
EXTT1=
EXTT2=
EXTT3=
EXTT4=
EXTT5=
EXTT6=
EXTT7=
EXTT8=
EXTT9=
EXTT10=
EXTT11=
EXTT12=
EXTT13=
EXTT14=
EXTT15=
EXTT16=
EXTT17=
PLAYORDER=
